HIERARCHY
ROOT Hips
{
	OFFSET 0.000000 0.000000 0.000000
	CHANNELS 6 Xposition Yposition Zposition Xrotation Yrotation Zrotation
	JOINT LeftUpLeg_virtual
	{
		OFFSET 0.000000 0.000000 0.000000
		CHANNELS 3 Xrotation Yrotation Zrotation
		JOINT LeftUpLeg
		{
			OFFSET 13.026900 -6.336304 -1.092800
			CHANNELS 3 Xrotation Yrotation Zrotation
			JOINT LeftLeg
			{
				OFFSET 0.524474 -46.096886 9.782700
				CHANNELS 3 Xrotation Yrotation Zrotation
				JOINT LeftFoot
				{
					OFFSET -0.524474 -53.427422 -12.948200
					CHANNELS 3 Xrotation Yrotation Zrotation
					JOINT LeftToeBase
					{
						OFFSET 0.192200 -14.009700 16.364100
						CHANNELS 3 Xrotation Yrotation Zrotation
						JOINT LeftToe_End
						{
							OFFSET -1.784700 -0.561700 9.474800
							CHANNELS 3 Xrotation Yrotation Zrotation
							End Site
							{
								OFFSET 0 0 0
							}
						}
					}
				}
			}
		}
	}
	JOINT RightUpLeg_virtual
	{
		OFFSET 0.000000 0.000000 0.000000
		CHANNELS 3 Xrotation Yrotation Zrotation
		JOINT RightUpLeg
		{
			OFFSET -12.883000 -6.336304 -1.092800
			CHANNELS 3 Xrotation Yrotation Zrotation
			JOINT RightLeg
			{
				OFFSET -0.524587 -46.096825 9.782800
				CHANNELS 3 Xrotation Yrotation Zrotation
				JOINT RightFoot
				{
					OFFSET 0.524587 -53.427383 -12.948300
					CHANNELS 3 Xrotation Yrotation Zrotation
					JOINT RightToeBase
					{
						OFFSET -0.192200 -14.009700 16.364100
						CHANNELS 3 Xrotation Yrotation Zrotation
						JOINT RightToe_End
						{
							OFFSET 1.784700 -0.561700 9.474800
							CHANNELS 3 Xrotation Yrotation Zrotation
							End Site
							{
								OFFSET 0 0 0
							}
						}
					}
				}
			}
		}
	}
	JOINT Spine_virtual
	{
		OFFSET 0.000000 0.000000 0.000000
		CHANNELS 3 Xrotation Yrotation Zrotation
		JOINT Spine
		{
			OFFSET 0.072000 7.257294 -0.789700
			CHANNELS 3 Xrotation Yrotation Zrotation
			JOINT Spine1
			{
				OFFSET 0.000000 12.508769 -0.658067
				CHANNELS 3 Xrotation Yrotation Zrotation
				JOINT Spine1_split
				{
					OFFSET 0.000000 12.508769 -0.658067
					CHANNELS 3 Xrotation Yrotation Zrotation
					JOINT Spine2
					{
						OFFSET 0.000000 12.508769 -0.658067
						CHANNELS 3 Xrotation Yrotation Zrotation
						JOINT Neck_virtual
						{
							OFFSET 0.000000 0.000000 0.000000
							CHANNELS 3 Xrotation Yrotation Zrotation
							JOINT Neck
							{
								OFFSET 0.000000 14.033295 7.520400
								CHANNELS 3 Xrotation Yrotation Zrotation
								JOINT Head
								{
									OFFSET 0.000000 8.198502 5.703100
									CHANNELS 3 Xrotation Yrotation Zrotation
									JOINT HeadTop_End
									{
										OFFSET 0.000000 17.760803 13.332701
										CHANNELS 3 Xrotation Yrotation Zrotation
										End Site
										{
											OFFSET 0 0 0
										}
									}
								}
							}
						}
						JOINT LeftShoulder_virtual
						{
							OFFSET 0.000000 0.000000 0.000000
							CHANNELS 3 Xrotation Yrotation Zrotation
							JOINT LeftShoulder
							{
								OFFSET 6.292450 5.785301 -0.669000
								CHANNELS 3 Xrotation Yrotation Zrotation
								JOINT LeftShoulder_split
								{
									OFFSET 6.292450 5.785301 -0.669000
									CHANNELS 3 Xrotation Yrotation Zrotation
									JOINT LeftArm
									{
										OFFSET 13.907140 -6.093903 1.965100
										CHANNELS 3 Xrotation Yrotation Zrotation
										JOINT LeftForeArm
										{
											OFFSET 34.140198 0.000000 0.000000
											CHANNELS 3 Xrotation Yrotation Zrotation
											JOINT LeftHand
											{
												OFFSET 40.960209 0.000000 0.000000
												CHANNELS 3 Xrotation Yrotation Zrotation
												End Site
												{
													OFFSET 0 0 0
												}
											}
										}
									}
								}
							}
						}
						JOINT RightShoulder_virtual
						{
							OFFSET 0.000000 0.000000 0.000000
							CHANNELS 3 Xrotation Yrotation Zrotation
							JOINT RightShoulder
							{
								OFFSET -6.292450 5.785301 -0.669000
								CHANNELS 3 Xrotation Yrotation Zrotation
								JOINT RightShoulder_split
								{
									OFFSET -6.292450 5.785301 -0.669000
									CHANNELS 3 Xrotation Yrotation Zrotation
									JOINT RightArm
									{
										OFFSET -13.907140 -6.093903 1.965100
										CHANNELS 3 Xrotation Yrotation Zrotation
										JOINT RightForeArm
										{
											OFFSET -34.140198 0.000000 0.000000
											CHANNELS 3 Xrotation Yrotation Zrotation
											JOINT RightHand
											{
												OFFSET -40.960209 0.000000 0.000000
												CHANNELS 3 Xrotation Yrotation Zrotation
												End Site
												{
													OFFSET 0 0 0
												}
											}
										}
									}
								}
							}
						}
					}
				}
			}
		}
	}
}
MOTION
Frames: 8
Frame Time: 0.03333333
18.014959 42.926552 -12.831577 0.000000 0.000000 0.000000 3.152973 -21.682924 10.525905 -95.995235 -13.630780 38.534578 66.633884 -6.888711 0.352683 42.656891 15.901357 -23.354427 -0.226586 -4.036487 0.572151 0.000000 0.000000 0.000000 1.028426 -20.582316 10.040436 -17.843073 -15.262855 -25.181640 109.261245 21.116781 -18.224241 14.287165 -30.670111 41.724051 9.514906 2.535921 -15.695488 0.000000 0.000000 0.000000 0.552758 -11.945720 9.577413 6.087855 1.036454 -7.972251 3.034169 -4.930126 -2.198709 0.166807 0.072820 -0.097055 0.000000 0.000000 0.000000 2.283241 -2.554290 -2.555612 -14.062695 8.201391 7.615641 -24.701229 23.916228 8.992338 0.000000 0.000000 0.000000 0.597203 -3.833553 -3.167384 0.113533 -1.377362 5.109270 -1.278487 1.077530 -0.759858 8.443296 -3.122187 -50.981597 44.393965 -82.033311 35.122595 0.000000 0.000000 0.000000 3.716484 -3.608421 -3.028329 2.379693 11.175637 10.461000 1.120054 4.155586 9.075296 25.787835 25.793065 22.310856 -170.888027 54.215026 -179.904369 0.000000 0.000000 0.000000 
17.989536 42.954674 -12.827572 0.000000 0.000000 0.000000 3.152349 -21.673920 10.533646 -95.961713 -13.626525 38.548396 66.636453 -6.902915 0.353164 42.644689 15.908318 -23.359151 -0.215967 -4.034527 0.572587 0.000000 0.000000 0.000000 1.030725 -20.581132 10.048656 -17.865709 -15.270694 -25.205312 109.272665 21.105300 -18.218116 14.250395 -30.682808 41.697646 9.572699 2.528845 -15.701638 0.000000 0.000000 0.000000 0.582617 -11.925470 9.586198 6.091559 1.040765 -7.985578 3.038460 -4.933365 -2.205738 0.170698 0.074585 -0.098237 0.000000 0.000000 0.000000 2.282091 -2.554866 -2.564535 -14.050187 8.209396 7.607679 -24.628583 23.925191 8.980906 0.000000 0.000000 0.000000 0.603034 -3.838982 -3.173676 0.109043 -1.376709 5.142467 -1.298463 1.033461 -0.795181 8.416604 -3.103892 -50.948461 44.579999 -82.102207 35.313782 0.000000 0.000000 0.000000 3.719840 -3.613019 -3.032817 2.378699 11.164427 10.478008 1.109378 4.156653 9.071019 25.839463 25.736998 22.257194 -170.882467 54.257623 -179.891951 0.000000 0.000000 0.000000 
17.962292 42.996391 -12.823444 0.000000 0.000000 0.000000 3.169955 -21.665746 10.561073 -95.880864 -13.620096 38.548727 66.599146 -6.893199 0.344743 42.614773 15.934522 -23.382487 -0.198956 -4.029272 0.560964 0.000000 0.000000 0.000000 1.045449 -20.577939 10.077648 -17.948660 -15.261382 -25.255970 109.304808 21.078174 -18.196995 14.219396 -30.700382 41.628593 9.656159 2.521781 -15.703481 0.000000 0.000000 0.000000 0.621414 -11.903800 9.613817 6.108819 1.054453 -8.013654 3.042326 -4.931415 -2.218096 0.171981 0.079684 -0.096841 0.000000 0.000000 0.000000 2.277034 -2.550155 -2.580340 -14.036906 8.210438 7.608733 -24.506864 23.851154 8.973466 0.000000 0.000000 0.000000 0.606605 -3.838125 -3.184826 0.105866 -1.370330 5.178661 -1.291169 0.973211 -0.860290 8.299999 -3.039468 -50.908573 44.881518 -82.244678 35.623272 0.000000 0.000000 0.000000 3.724972 -3.611852 -3.044893 2.374618 11.167771 10.515765 1.104694 4.191924 9.092603 25.835225 25.576880 22.214985 -170.899092 54.277563 -179.858579 0.000000 0.000000 0.000000 
17.934546 43.043552 -12.818111 0.000000 0.000000 0.000000 3.195802 -21.663673 10.600125 -95.769436 -13.615637 38.539090 66.532729 -6.864767 0.328877 42.570073 15.972754 -23.424094 -0.182704 -4.021510 0.540202 0.000000 0.000000 0.000000 1.071022 -20.572784 10.120903 -18.071446 -15.244789 -25.317370 109.343576 21.042705 -18.163905 14.214191 -30.713537 41.533308 9.735534 2.518233 -15.703126 0.000000 0.000000 0.000000 0.655014 -11.893800 9.655596 6.136487 1.074492 -8.047271 3.044736 -4.927224 -2.233949 0.169918 0.083976 -0.093540 0.000000 0.000000 0.000000 2.268365 -2.542601 -2.599341 -14.021907 8.207113 7.611288 -24.357010 23.700540 8.962058 0.000000 0.000000 0.000000 0.607871 -3.833352 -3.198415 0.104101 -1.363456 5.207795 -1.262413 0.912693 -0.940662 8.119170 -2.938172 -50.874466 45.246462 -82.420425 35.997539 0.000000 0.000000 0.000000 3.729564 -3.607203 -3.062558 2.370748 11.185099 10.560389 1.090046 4.241798 9.133276 25.791216 25.376519 22.177204 -170.933626 54.278516 -179.809320 0.000000 0.000000 0.000000 
17.908310 43.088985 -12.812061 0.000000 0.000000 0.000000 3.222177 -21.663349 10.643990 -95.645113 -13.616641 38.525624 66.456750 -6.825904 0.309618 42.520574 16.010126 -23.486388 -0.168448 -4.012353 0.514740 0.000000 0.000000 0.000000 1.096829 -20.577425 10.166338 -18.220322 -15.235290 -25.379682 109.379278 21.006643 -18.120809 14.253822 -30.702151 41.454221 9.804738 2.517818 -15.705486 0.000000 0.000000 0.000000 0.679714 -11.895094 9.703003 6.172377 1.096685 -8.074960 3.045805 -4.923747 -2.250880 0.169446 0.085780 -0.091091 0.000000 0.000000 0.000000 2.255182 -2.536830 -2.617557 -14.001328 8.205753 7.605529 -24.198928 23.493568 8.938518 0.000000 0.000000 0.000000 0.610199 -3.829732 -3.211396 0.103848 -1.356637 5.219100 -1.226657 0.875578 -1.012918 7.905012 -2.814604 -50.855051 45.623229 -82.582963 36.381549 0.000000 0.000000 0.000000 3.732561 -3.602622 -3.082563 2.368893 11.219389 10.600909 1.068706 4.303177 9.183812 25.727748 25.194681 22.140514 -170.974552 54.270125 -179.755785 0.000000 0.000000 0.000000 
17.885838 43.122433 -12.808064 0.000000 0.000000 0.000000 3.237652 -21.662280 10.682213 -95.526097 -13.624382 38.512916 66.392908 -6.786142 0.291553 42.477035 16.034094 -23.572098 -0.160726 -4.002992 0.491221 0.000000 0.000000 0.000000 1.103577 -20.595766 10.203745 -18.362504 -15.244316 -25.427884 109.408395 20.976944 -18.079309 14.316419 -30.664937 41.413411 9.857714 2.521188 -15.716095 0.000000 0.000000 0.000000 0.693419 -11.907378 9.751208 6.212041 1.116991 -8.088978 3.045094 -4.924438 -2.266710 0.171650 0.086005 -0.090760 0.000000 0.000000 0.000000 2.237912 -2.537453 -2.632418 -13.971239 8.212929 7.587423 -24.044224 23.260100 8.903133 0.000000 0.000000 0.000000 0.615648 -3.831255 -3.222763 0.104526 -1.350166 5.205103 -1.199634 0.864052 -1.059231 7.706711 -2.679433 -50.855765 45.984887 -82.698407 36.747927 0.000000 0.000000 0.000000 3.732858 -3.602063 -3.103291 2.370421 11.268163 10.630422 1.045007 4.362421 9.235713 25.676056 25.088168 22.104548 -171.006217 54.262568 -179.710391 0.000000 0.000000 0.000000 
17.859863 43.142246 -12.806515 0.000000 0.000000 0.000000 3.242097 -21.660321 10.713381 -95.426670 -13.637081 38.504621 66.350875 -6.748539 0.274695 42.442847 16.045168 -23.669768 -0.160246 -3.994699 0.473647 0.000000 0.000000 0.000000 1.100497 -20.595273 10.235225 -18.455219 -15.276618 -25.444710 109.418162 20.954045 -18.046917 14.340646 -30.625219 41.386637 9.874549 2.531690 -15.737685 0.000000 0.000000 0.000000 0.698344 -11.928503 9.792115 6.249836 1.134356 -8.086130 3.040878 -4.930828 -2.281797 0.174976 0.084883 -0.091143 0.000000 0.000000 0.000000 2.216554 -2.544557 -2.643959 -13.926776 8.233644 7.560686 -23.889732 23.028078 8.857001 0.000000 0.000000 0.000000 0.623597 -3.840487 -3.232114 0.105079 -1.343336 5.162565 -1.188243 0.880813 -1.075133 7.549740 -2.537151 -50.880746 46.313532 -82.753322 37.077723 0.000000 0.000000 0.000000 3.729068 -3.608162 -3.123862 2.377129 11.323902 10.654238 0.996881 4.407740 9.277598 25.667386 25.075262 22.060253 -171.012746 54.260983 -179.684969 0.000000 0.000000 0.000000 
17.828896 43.148655 -12.804440 0.000000 0.000000 0.000000 3.239067 -21.659295 10.737341 -95.355349 -13.654270 38.502978 66.335473 -6.718791 0.261469 42.423480 16.042769 -23.776918 -0.166337 -3.988190 0.464133 0.000000 0.000000 0.000000 1.093452 -20.574896 10.261596 -18.476748 -15.322983 -25.422960 109.407418 20.930510 -18.018650 14.284174 -30.609629 41.333966 9.865465 2.547850 -15.764445 0.000000 0.000000 0.000000 0.694528 -11.950637 9.822456 6.281192 1.146722 -8.068990 3.031391 -4.942247 -2.296232 0.177102 0.081785 -0.091569 0.000000 0.000000 0.000000 2.190885 -2.557480 -2.653841 -13.866316 8.263095 7.536671 -23.721640 22.808344 8.804146 0.000000 0.000000 0.000000 0.630033 -3.857031 -3.239059 0.104438 -1.337097 5.096803 -1.190939 0.906577 -1.062494 7.443092 -2.384254 -50.932635 46.636624 -82.761716 37.399742 0.000000 0.000000 0.000000 3.720681 -3.621494 -3.143453 2.385673 11.375826 10.682400 0.954392 4.464388 9.306630 25.694133 25.137717 22.012561 -170.984196 54.264412 -179.687783 0.000000 0.000000 0.000000 
